<svg xmlns="http://www.w3.org/2000/svg" viewBox="0 0 600 890" fill="none">
  <defs>
    <linearGradient id="grad" x1="0%" y1="20%" x2="100%" y2="80%">
      <stop offset="0%" stop-color="#2174C6"/>
      <stop offset="100%" stop-color="#6E54D1"/>
    </linearGradient>
  </defs>
  <path d="M287.00,0.00 L286.00,1.00 L285.00,1.00 L284.00,2.00 L280.00,2.00 L279.00,3.00 L278.00,3.00 L277.00,4.00 L275.00,4.00 L274.00,5.00 L273.00,5.00 L272.00,6.00 L271.00,6.00 L269.00,8.00 L268.00,8.00 L266.00,10.00 L264.00,10.00 L258.00,16.00 L257.00,16.00 L255.00,18.00 L254.00,18.00 L236.00,36.00 L235.00,36.00 L235.00,37.00 L234.00,38.00 L233.00,38.00 L233.00,39.00 L232.00,40.00 L231.00,40.00 L231.00,41.00 L230.00,42.00 L229.00,42.00 L229.00,43.00 L228.00,44.00 L227.00,44.00 L227.00,45.00 L226.00,46.00 L225.00,46.00 L225.00,47.00 L224.00,48.00 L223.00,48.00 L223.00,49.00 L222.00,50.00 L221.00,50.00 L221.00,51.00 L216.00,56.00 L215.00,56.00 L215.00,57.00 L208.00,64.00 L207.00,64.00 L207.00,65.00 L206.00,66.00 L205.00,66.00 L205.00,67.00 L103.00,169.00 L103.00,170.00 L101.00,172.00 L100.00,172.00 L91.00,181.00 L91.00,182.00 L89.00,184.00 L88.00,184.00 L87.00,185.00 L87.00,186.00 L85.00,188.00 L84.00,188.00 L84.00,189.00 L57.00,216.00 L57.00,217.00 L56.00,218.00 L55.00,218.00 L55.00,219.00 L43.00,231.00 L43.00,232.00 L41.00,234.00 L41.00,235.00 L37.00,239.00 L37.00,240.00 L35.00,242.00 L35.00,243.00 L33.00,245.00 L33.00,246.00 L31.00,248.00 L31.00,249.00 L29.00,251.00 L29.00,252.00 L27.00,254.00 L27.00,255.00 L25.00,257.00 L25.00,259.00 L23.00,261.00 L23.00,263.00 L21.00,265.00 L21.00,267.00 L19.00,269.00 L19.00,271.00 L17.00,273.00 L17.00,275.00 L15.00,277.00 L15.00,280.00 L13.00,282.00 L13.00,285.00 L12.00,286.00 L12.00,287.00 L11.00,288.00 L11.00,291.00 L10.00,292.00 L10.00,293.00 L9.00,294.00 L9.00,298.00 L8.00,299.00 L8.00,300.00 L7.00,301.00 L7.00,306.00 L6.00,307.00 L6.00,308.00 L5.00,309.00 L5.00,317.00 L4.00,318.00 L4.00,319.00 L3.00,320.00 L3.00,331.00 L2.00,332.00 L2.00,334.00 L1.00,335.00 L1.00,374.00 L2.00,375.00 L2.00,376.00 L3.00,377.00 L3.00,384.00 L4.00,385.00 L4.00,386.00 L5.00,387.00 L5.00,392.00 L7.00,394.00 L7.00,398.00 L9.00,400.00 L9.00,403.00 L11.00,405.00 L11.00,408.00 L13.00,410.00 L13.00,412.00 L15.00,414.00 L15.00,416.00 L17.00,418.00 L17.00,420.00 L19.00,422.00 L19.00,424.00 L21.00,426.00 L21.00,427.00 L23.00,429.00 L23.00,430.00 L25.00,432.00 L25.00,434.00 L27.00,436.00 L27.00,437.00 L29.00,439.00 L29.00,440.00 L31.00,442.00 L31.00,449.00 L27.00,453.00 L27.00,454.00 L25.00,456.00 L25.00,457.00 L23.00,459.00 L23.00,460.00 L21.00,462.00 L21.00,463.00 L19.00,465.00 L19.00,467.00 L17.00,469.00 L17.00,471.00 L15.00,473.00 L15.00,475.00 L13.00,477.00 L13.00,479.00 L11.00,481.00 L11.00,484.00 L9.00,486.00 L9.00,490.00 L7.00,492.00 L7.00,495.00 L6.00,496.00 L6.00,497.00 L5.00,498.00 L5.00,503.00 L3.00,505.00 L3.00,512.00 L2.00,513.00 L2.00,514.00 L1.00,515.00 L1.00,529.00 L0.00,530.00 L0.00,545.00 L1.00,546.00 L1.00,561.00 L2.00,562.00 L2.00,564.00 L3.00,565.00 L3.00,572.00 L5.00,574.00 L5.00,580.00 L7.00,582.00 L7.00,586.00 L8.00,587.00 L8.00,588.00 L9.00,589.00 L9.00,592.00 L11.00,594.00 L11.00,598.00 L13.00,600.00 L13.00,603.00 L15.00,605.00 L15.00,608.00 L17.00,610.00 L17.00,612.00 L19.00,614.00 L19.00,616.00 L21.00,618.00 L21.00,620.00 L23.00,622.00 L23.00,623.00 L25.00,625.00 L25.00,626.00 L27.00,628.00 L27.00,630.00 L29.00,632.00 L29.00,633.00 L31.00,635.00 L31.00,636.00 L33.00,638.00 L33.00,639.00 L35.00,641.00 L35.00,642.00 L39.00,646.00 L39.00,647.00 L41.00,649.00 L41.00,650.00 L45.00,654.00 L45.00,655.00 L49.00,659.00 L49.00,660.00 L160.00,771.00 L161.00,771.00 L217.00,827.00 L218.00,827.00 L219.00,828.00 L219.00,829.00 L220.00,829.00 L221.00,830.00 L221.00,831.00 L222.00,831.00 L223.00,832.00 L223.00,833.00 L224.00,833.00 L225.00,834.00 L225.00,835.00 L226.00,835.00 L227.00,836.00 L227.00,837.00 L228.00,837.00 L229.00,838.00 L229.00,839.00 L230.00,839.00 L231.00,840.00 L231.00,841.00 L232.00,841.00 L233.00,842.00 L233.00,843.00 L234.00,843.00 L235.00,844.00 L235.00,845.00 L236.00,845.00 L237.00,846.00 L237.00,847.00 L238.00,847.00 L243.00,852.00 L243.00,853.00 L244.00,853.00 L251.00,860.00 L251.00,861.00 L252.00,861.00 L253.00,862.00 L253.00,863.00 L254.00,863.00 L255.00,864.00 L255.00,865.00 L256.00,865.00 L257.00,866.00 L257.00,867.00 L258.00,867.00 L261.00,870.00 L261.00,871.00 L262.00,871.00 L263.00,872.00 L263.00,873.00 L264.00,873.00 L270.00,879.00 L271.00,879.00 L273.00,881.00 L274.00,881.00 L276.00,883.00 L278.00,883.00 L280.00,885.00 L281.00,885.00 L282.00,886.00 L283.00,886.00 L284.00,887.00 L287.00,887.00 L289.00,889.00 L308.00,889.00 L310.00,887.00 L313.00,887.00 L314.00,886.00 L315.00,886.00 L316.00,885.00 L318.00,885.00 L320.00,883.00 L321.00,883.00 L323.00,881.00 L324.00,881.00 L326.00,879.00 L327.00,879.00 L331.00,875.00 L332.00,875.00 L334.00,873.00 L335.00,873.00 L373.00,835.00 L374.00,835.00 L374.00,834.00 L375.00,833.00 L376.00,833.00 L376.00,832.00 L377.00,831.00 L378.00,831.00 L378.00,830.00 L379.00,829.00 L380.00,829.00 L380.00,828.00 L381.00,827.00 L382.00,827.00 L382.00,826.00 L383.00,825.00 L384.00,825.00 L384.00,824.00 L385.00,823.00 L386.00,823.00 L386.00,822.00 L387.00,821.00 L388.00,821.00 L388.00,820.00 L389.00,819.00 L390.00,819.00 L390.00,818.00 L391.00,817.00 L392.00,817.00 L392.00,816.00 L393.00,815.00 L394.00,815.00 L416.00,793.00 L417.00,793.00 L426.00,784.00 L426.00,783.00 L427.00,782.00 L428.00,782.00 L509.00,701.00 L510.00,701.00 L510.00,700.00 L511.00,699.00 L512.00,699.00 L512.00,698.00 L513.00,697.00 L514.00,697.00 L514.00,696.00 L515.00,695.00 L516.00,695.00 L516.00,694.00 L517.00,693.00 L518.00,693.00 L518.00,692.00 L519.00,691.00 L520.00,691.00 L520.00,690.00 L521.00,689.00 L522.00,689.00 L522.00,688.00 L523.00,687.00 L524.00,687.00 L548.00,663.00 L548.00,662.00 L549.00,661.00 L550.00,661.00 L550.00,660.00 L558.00,652.00 L558.00,651.00 L560.00,649.00 L560.00,648.00 L564.00,644.00 L564.00,643.00 L566.00,641.00 L566.00,640.00 L570.00,636.00 L570.00,634.00 L572.00,632.00 L572.00,631.00 L574.00,629.00 L574.00,628.00 L576.00,626.00 L576.00,624.00 L578.00,622.00 L578.00,621.00 L579.00,620.00 L579.00,619.00 L580.00,618.00 L580.00,617.00 L582.00,615.00 L582.00,613.00 L583.00,612.00 L583.00,611.00 L584.00,610.00 L584.00,608.00 L586.00,606.00 L586.00,604.00 L588.00,602.00 L588.00,598.00 L590.00,596.00 L590.00,593.00 L592.00,591.00 L592.00,587.00 L593.00,586.00 L593.00,585.00 L594.00,584.00 L594.00,580.00 L595.00,579.00 L595.00,578.00 L596.00,577.00 L596.00,569.00 L597.00,568.00 L597.00,567.00 L598.00,566.00 L598.00,550.00 L599.00,549.00 L599.00,534.00 L598.00,533.00 L598.00,520.00 L597.00,519.00 L597.00,517.00 L596.00,516.00 L596.00,509.00 L595.00,508.00 L595.00,507.00 L594.00,506.00 L594.00,501.00 L593.00,500.00 L593.00,499.00 L592.00,498.00 L592.00,494.00 L590.00,492.00 L590.00,489.00 L588.00,487.00 L588.00,483.00 L586.00,481.00 L586.00,479.00 L584.00,477.00 L584.00,475.00 L582.00,473.00 L582.00,472.00 L580.00,470.00 L580.00,468.00 L578.00,466.00 L578.00,465.00 L576.00,463.00 L576.00,462.00 L574.00,460.00 L574.00,459.00 L570.00,455.00 L570.00,454.00 L566.00,450.00 L566.00,444.00 L568.00,442.00 L568.00,441.00 L570.00,439.00 L570.00,438.00 L574.00,434.00 L574.00,433.00 L576.00,431.00 L576.00,430.00 L578.00,428.00 L578.00,426.00 L580.00,424.00 L580.00,422.00 L582.00,420.00 L582.00,418.00 L584.00,416.00 L584.00,414.00 L585.00,413.00 L585.00,412.00 L586.00,411.00 L586.00,408.00 L588.00,406.00 L588.00,402.00 L590.00,400.00 L590.00,396.00 L591.00,395.00 L591.00,394.00 L592.00,393.00 L592.00,388.00 L593.00,387.00 L593.00,386.00 L594.00,385.00 L594.00,376.00 L595.00,375.00 L595.00,373.00 L596.00,372.00 L596.00,332.00 L595.00,331.00 L595.00,328.00 L594.00,327.00 L594.00,319.00 L593.00,318.00 L593.00,317.00 L592.00,316.00 L592.00,310.00 L591.00,309.00 L591.00,308.00 L590.00,307.00 L590.00,302.00 L588.00,300.00 L588.00,296.00 L587.00,295.00 L587.00,294.00 L586.00,293.00 L586.00,291.00 L585.00,290.00 L585.00,289.00 L584.00,288.00 L584.00,285.00 L582.00,283.00 L582.00,280.00 L580.00,278.00 L580.00,275.00 L578.00,273.00 L578.00,271.00 L576.00,269.00 L576.00,267.00 L574.00,265.00 L574.00,263.00 L572.00,261.00 L572.00,260.00 L571.00,259.00 L571.00,258.00 L570.00,257.00 L570.00,256.00 L568.00,254.00 L568.00,253.00 L566.00,251.00 L566.00,249.00 L562.00,245.00 L562.00,244.00 L560.00,242.00 L560.00,241.00 L558.00,239.00 L558.00,238.00 L554.00,234.00 L554.00,233.00 L550.00,229.00 L550.00,228.00 L546.00,224.00 L546.00,223.00 L524.00,201.00 L524.00,200.00 L523.00,200.00 L522.00,199.00 L522.00,198.00 L521.00,198.00 L520.00,197.00 L520.00,196.00 L519.00,196.00 L518.00,195.00 L518.00,194.00 L517.00,194.00 L516.00,193.00 L516.00,192.00 L515.00,192.00 L514.00,191.00 L514.00,190.00 L513.00,190.00 L512.00,189.00 L512.00,188.00 L511.00,188.00 L510.00,187.00 L510.00,186.00 L508.00,184.00 L507.00,184.00 L506.00,183.00 L506.00,182.00 L505.00,182.00 L504.00,181.00 L504.00,180.00 L500.00,176.00 L499.00,176.00 L498.00,175.00 L498.00,174.00 L453.00,129.00 L453.00,128.00 L349.00,24.00 L348.00,24.00 L344.00,20.00 L343.00,20.00 L339.00,16.00 L338.00,16.00 L336.00,14.00 L335.00,14.00 L331.00,10.00 L329.00,10.00 L327.00,8.00 L326.00,8.00 L324.00,6.00 L322.00,6.00 L320.00,4.00 L317.00,4.00 L315.00,2.00 L311.00,2.00 L310.00,1.00 L309.00,1.00 L308.00,0.00 Z M78.00,498.00 L85.00,498.00 L116.00,529.00 L117.00,529.00 L139.00,551.00 L140.00,551.00 L141.00,552.00 L141.00,553.00 L145.00,557.00 L146.00,557.00 L147.00,558.00 L147.00,559.00 L205.00,617.00 L205.00,618.00 L207.00,620.00 L208.00,620.00 L225.00,637.00 L225.00,638.00 L226.00,638.00 L279.00,691.00 L280.00,691.00 L284.00,695.00 L285.00,695.00 L287.00,697.00 L289.00,697.00 L291.00,699.00 L307.00,699.00 L309.00,697.00 L311.00,697.00 L313.00,695.00 L314.00,695.00 L316.00,693.00 L317.00,693.00 L323.00,687.00 L324.00,687.00 L332.00,679.00 L333.00,679.00 L429.00,583.00 L430.00,583.00 L430.00,582.00 L431.00,581.00 L432.00,581.00 L432.00,580.00 L485.00,527.00 L486.00,527.00 L486.00,526.00 L487.00,525.00 L488.00,525.00 L488.00,524.00 L491.00,521.00 L492.00,521.00 L492.00,520.00 L493.00,519.00 L494.00,519.00 L494.00,518.00 L495.00,517.00 L496.00,517.00 L496.00,516.00 L497.00,515.00 L498.00,515.00 L514.00,499.00 L520.00,499.00 L525.00,504.00 L525.00,506.00 L527.00,508.00 L527.00,510.00 L529.00,512.00 L529.00,516.00 L531.00,518.00 L531.00,522.00 L532.00,523.00 L532.00,524.00 L533.00,525.00 L533.00,531.00 L534.00,532.00 L534.00,533.00 L535.00,534.00 L535.00,554.00 L534.00,555.00 L534.00,556.00 L533.00,557.00 L533.00,564.00 L531.00,566.00 L531.00,570.00 L530.00,571.00 L530.00,572.00 L529.00,573.00 L529.00,576.00 L527.00,578.00 L527.00,581.00 L525.00,583.00 L525.00,585.00 L523.00,587.00 L523.00,589.00 L521.00,591.00 L521.00,593.00 L519.00,595.00 L519.00,596.00 L517.00,598.00 L517.00,599.00 L515.00,601.00 L515.00,602.00 L513.00,604.00 L513.00,605.00 L511.00,607.00 L511.00,608.00 L509.00,610.00 L509.00,611.00 L503.00,617.00 L503.00,618.00 L499.00,622.00 L499.00,623.00 L434.00,688.00 L433.00,688.00 L433.00,689.00 L432.00,690.00 L431.00,690.00 L431.00,691.00 L430.00,692.00 L429.00,692.00 L429.00,693.00 L428.00,694.00 L427.00,694.00 L427.00,695.00 L426.00,696.00 L425.00,696.00 L425.00,697.00 L424.00,698.00 L423.00,698.00 L415.00,706.00 L415.00,707.00 L414.00,708.00 L413.00,708.00 L379.00,742.00 L378.00,742.00 L320.00,800.00 L319.00,800.00 L317.00,802.00 L316.00,802.00 L314.00,804.00 L313.00,804.00 L312.00,805.00 L311.00,805.00 L310.00,806.00 L308.00,806.00 L307.00,807.00 L306.00,807.00 L305.00,808.00 L292.00,808.00 L290.00,806.00 L287.00,806.00 L285.00,804.00 L284.00,804.00 L282.00,802.00 L281.00,802.00 L277.00,798.00 L276.00,798.00 L272.00,794.00 L271.00,794.00 L270.00,793.00 L270.00,792.00 L269.00,792.00 L102.00,625.00 L102.00,624.00 L101.00,624.00 L100.00,623.00 L100.00,622.00 L99.00,622.00 L98.00,621.00 L98.00,620.00 L96.00,618.00 L96.00,617.00 L90.00,611.00 L90.00,610.00 L88.00,608.00 L88.00,607.00 L84.00,603.00 L84.00,602.00 L82.00,600.00 L82.00,599.00 L80.00,597.00 L80.00,595.00 L78.00,593.00 L78.00,592.00 L76.00,590.00 L76.00,588.00 L74.00,586.00 L74.00,585.00 L72.00,583.00 L72.00,580.00 L70.00,578.00 L70.00,575.00 L68.00,573.00 L68.00,570.00 L66.00,568.00 L66.00,563.00 L64.00,561.00 L64.00,554.00 L63.00,553.00 L63.00,551.00 L62.00,550.00 L62.00,533.00 L63.00,532.00 L63.00,531.00 L64.00,530.00 L64.00,524.00 L65.00,523.00 L65.00,522.00 L66.00,521.00 L66.00,517.00 L68.00,515.00 L68.00,512.00 L70.00,510.00 L70.00,509.00 L71.00,508.00 L71.00,507.00 L74.00,504.00 L74.00,502.00 Z M294.00,73.00 L295.00,72.00 L301.00,72.00 L302.00,73.00 L305.00,73.00 L307.00,75.00 L309.00,75.00 L333.00,99.00 L333.00,100.00 L431.00,198.00 L431.00,199.00 L432.00,199.00 L433.00,200.00 L433.00,201.00 L434.00,201.00 L435.00,202.00 L435.00,203.00 L436.00,203.00 L437.00,204.00 L437.00,205.00 L438.00,205.00 L439.00,206.00 L439.00,207.00 L440.00,207.00 L441.00,208.00 L441.00,209.00 L442.00,209.00 L443.00,210.00 L443.00,211.00 L444.00,211.00 L445.00,212.00 L445.00,213.00 L446.00,213.00 L447.00,214.00 L447.00,215.00 L448.00,215.00 L449.00,216.00 L449.00,217.00 L450.00,217.00 L451.00,218.00 L451.00,219.00 L474.00,242.00 L474.00,243.00 L475.00,243.00 L479.00,247.00 L479.00,248.00 L503.00,272.00 L503.00,273.00 L505.00,275.00 L505.00,276.00 L509.00,280.00 L509.00,281.00 L511.00,283.00 L511.00,284.00 L513.00,286.00 L513.00,287.00 L515.00,289.00 L515.00,290.00 L517.00,292.00 L517.00,294.00 L519.00,296.00 L519.00,298.00 L521.00,300.00 L521.00,302.00 L523.00,304.00 L523.00,306.00 L524.00,307.00 L524.00,308.00 L525.00,309.00 L525.00,312.00 L527.00,314.00 L527.00,317.00 L528.00,318.00 L528.00,319.00 L529.00,320.00 L529.00,324.00 L530.00,325.00 L530.00,326.00 L531.00,327.00 L531.00,335.00 L532.00,336.00 L532.00,338.00 L533.00,339.00 L533.00,360.00 L532.00,361.00 L532.00,363.00 L531.00,364.00 L531.00,371.00 L530.00,372.00 L530.00,373.00 L529.00,374.00 L529.00,378.00 L527.00,380.00 L527.00,384.00 L525.00,386.00 L525.00,388.00 L523.00,390.00 L523.00,392.00 L521.00,394.00 L521.00,395.00 L519.00,397.00 L519.00,398.00 L515.00,402.00 L507.00,402.00 L506.00,401.00 L506.00,400.00 L505.00,400.00 L494.00,389.00 L494.00,388.00 L493.00,388.00 L492.00,387.00 L492.00,386.00 L491.00,386.00 L484.00,379.00 L484.00,378.00 L483.00,378.00 L482.00,377.00 L482.00,376.00 L481.00,376.00 L480.00,375.00 L480.00,374.00 L479.00,374.00 L478.00,373.00 L478.00,372.00 L477.00,372.00 L466.00,361.00 L466.00,360.00 L465.00,360.00 L464.00,359.00 L464.00,358.00 L463.00,358.00 L462.00,357.00 L462.00,356.00 L461.00,356.00 L436.00,331.00 L436.00,330.00 L435.00,330.00 L434.00,329.00 L434.00,328.00 L433.00,328.00 L430.00,325.00 L430.00,324.00 L429.00,324.00 L428.00,323.00 L428.00,322.00 L427.00,322.00 L424.00,319.00 L424.00,318.00 L423.00,318.00 L420.00,315.00 L420.00,314.00 L419.00,314.00 L418.00,313.00 L418.00,312.00 L417.00,312.00 L416.00,311.00 L416.00,310.00 L415.00,310.00 L414.00,309.00 L414.00,308.00 L413.00,308.00 L412.00,307.00 L412.00,306.00 L411.00,306.00 L410.00,305.00 L410.00,304.00 L409.00,304.00 L408.00,303.00 L408.00,302.00 L407.00,302.00 L406.00,301.00 L406.00,300.00 L405.00,300.00 L404.00,299.00 L404.00,298.00 L403.00,298.00 L402.00,297.00 L402.00,296.00 L401.00,296.00 L400.00,295.00 L400.00,294.00 L399.00,294.00 L398.00,293.00 L398.00,292.00 L397.00,292.00 L396.00,291.00 L396.00,290.00 L378.00,272.00 L377.00,272.00 L376.00,271.00 L376.00,270.00 L375.00,270.00 L374.00,269.00 L374.00,268.00 L373.00,268.00 L372.00,267.00 L372.00,266.00 L370.00,264.00 L369.00,264.00 L368.00,263.00 L368.00,262.00 L366.00,260.00 L365.00,260.00 L364.00,259.00 L364.00,258.00 L363.00,258.00 L362.00,257.00 L362.00,256.00 L350.00,244.00 L349.00,244.00 L348.00,243.00 L348.00,242.00 L328.00,222.00 L327.00,222.00 L326.00,221.00 L326.00,220.00 L325.00,220.00 L324.00,219.00 L324.00,218.00 L323.00,218.00 L322.00,217.00 L322.00,216.00 L321.00,216.00 L320.00,215.00 L320.00,214.00 L319.00,214.00 L318.00,213.00 L318.00,212.00 L317.00,212.00 L313.00,208.00 L312.00,208.00 L310.00,206.00 L309.00,206.00 L307.00,204.00 L305.00,204.00 L303.00,202.00 L290.00,202.00 L288.00,204.00 L286.00,204.00 L284.00,206.00 L283.00,206.00 L280.00,209.00 L279.00,209.00 L251.00,237.00 L251.00,238.00 L250.00,239.00 L249.00,239.00 L249.00,240.00 L231.00,258.00 L231.00,259.00 L230.00,260.00 L229.00,260.00 L229.00,261.00 L228.00,262.00 L227.00,262.00 L227.00,263.00 L226.00,264.00 L225.00,264.00 L225.00,265.00 L224.00,266.00 L223.00,266.00 L223.00,267.00 L222.00,268.00 L221.00,268.00 L221.00,269.00 L220.00,270.00 L219.00,270.00 L219.00,271.00 L218.00,272.00 L217.00,272.00 L217.00,273.00 L216.00,274.00 L215.00,274.00 L215.00,275.00 L214.00,276.00 L213.00,276.00 L213.00,277.00 L210.00,280.00 L209.00,280.00 L209.00,281.00 L204.00,286.00 L203.00,286.00 L203.00,287.00 L202.00,288.00 L201.00,288.00 L201.00,289.00 L200.00,290.00 L199.00,290.00 L199.00,291.00 L198.00,292.00 L197.00,292.00 L197.00,293.00 L113.00,377.00 L113.00,378.00 L109.00,382.00 L109.00,383.00 L105.00,387.00 L105.00,389.00 L103.00,391.00 L103.00,396.00 L105.00,398.00 L105.00,400.00 L115.00,410.00 L115.00,411.00 L116.00,411.00 L117.00,412.00 L117.00,413.00 L118.00,413.00 L119.00,414.00 L119.00,415.00 L120.00,415.00 L121.00,416.00 L121.00,417.00 L122.00,417.00 L123.00,418.00 L123.00,419.00 L124.00,419.00 L125.00,420.00 L125.00,421.00 L126.00,421.00 L134.00,429.00 L137.00,429.00 L139.00,431.00 L143.00,431.00 L145.00,429.00 L147.00,429.00 L149.00,427.00 L150.00,427.00 L152.00,425.00 L153.00,425.00 L187.00,391.00 L188.00,391.00 L188.00,390.00 L193.00,385.00 L194.00,385.00 L194.00,384.00 L195.00,383.00 L196.00,383.00 L196.00,382.00 L197.00,381.00 L198.00,381.00 L198.00,380.00 L199.00,379.00 L200.00,379.00 L200.00,378.00 L201.00,377.00 L202.00,377.00 L224.00,355.00 L225.00,355.00 L274.00,306.00 L274.00,305.00 L278.00,301.00 L279.00,301.00 L284.00,296.00 L284.00,295.00 L295.00,284.00 L301.00,284.00 L369.00,352.00 L369.00,353.00 L370.00,353.00 L371.00,354.00 L371.00,355.00 L372.00,355.00 L373.00,356.00 L373.00,357.00 L374.00,357.00 L375.00,358.00 L375.00,359.00 L376.00,359.00 L377.00,360.00 L377.00,361.00 L378.00,361.00 L379.00,362.00 L379.00,363.00 L399.00,383.00 L399.00,384.00 L400.00,384.00 L401.00,385.00 L401.00,386.00 L431.00,416.00 L431.00,417.00 L432.00,417.00 L433.00,418.00 L433.00,419.00 L434.00,419.00 L435.00,420.00 L435.00,421.00 L436.00,421.00 L437.00,422.00 L437.00,423.00 L438.00,423.00 L439.00,424.00 L439.00,425.00 L440.00,425.00 L441.00,426.00 L441.00,427.00 L442.00,427.00 L443.00,428.00 L443.00,429.00 L444.00,429.00 L445.00,430.00 L445.00,431.00 L446.00,431.00 L447.00,432.00 L447.00,433.00 L448.00,433.00 L449.00,434.00 L449.00,435.00 L450.00,435.00 L451.00,436.00 L451.00,437.00 L452.00,437.00 L453.00,438.00 L453.00,439.00 L454.00,439.00 L455.00,440.00 L455.00,441.00 L456.00,441.00 L457.00,442.00 L457.00,443.00 L464.00,450.00 L464.00,456.00 L463.00,457.00 L463.00,458.00 L461.00,460.00 L461.00,461.00 L445.00,477.00 L445.00,478.00 L440.00,483.00 L439.00,483.00 L439.00,484.00 L423.00,500.00 L423.00,501.00 L422.00,502.00 L421.00,502.00 L419.00,504.00 L419.00,505.00 L418.00,506.00 L417.00,506.00 L417.00,507.00 L416.00,508.00 L415.00,508.00 L415.00,509.00 L414.00,510.00 L413.00,510.00 L413.00,511.00 L410.00,514.00 L409.00,514.00 L409.00,515.00 L408.00,516.00 L407.00,516.00 L407.00,517.00 L406.00,518.00 L405.00,518.00 L405.00,519.00 L404.00,520.00 L403.00,520.00 L403.00,521.00 L402.00,522.00 L401.00,522.00 L401.00,523.00 L400.00,524.00 L399.00,524.00 L399.00,525.00 L398.00,526.00 L397.00,526.00 L397.00,527.00 L396.00,528.00 L395.00,528.00 L395.00,529.00 L394.00,530.00 L393.00,530.00 L393.00,531.00 L392.00,532.00 L391.00,532.00 L391.00,533.00 L390.00,534.00 L389.00,534.00 L389.00,535.00 L388.00,536.00 L387.00,536.00 L387.00,537.00 L386.00,538.00 L385.00,538.00 L385.00,539.00 L380.00,544.00 L379.00,544.00 L379.00,545.00 L378.00,546.00 L377.00,546.00 L377.00,547.00 L376.00,548.00 L375.00,548.00 L375.00,549.00 L374.00,550.00 L373.00,550.00 L371.00,552.00 L371.00,553.00 L370.00,554.00 L369.00,554.00 L369.00,555.00 L368.00,556.00 L367.00,556.00 L367.00,557.00 L366.00,558.00 L365.00,558.00 L365.00,559.00 L364.00,560.00 L363.00,560.00 L363.00,561.00 L362.00,562.00 L361.00,562.00 L361.00,563.00 L360.00,564.00 L359.00,564.00 L359.00,565.00 L358.00,566.00 L357.00,566.00 L357.00,567.00 L356.00,568.00 L355.00,568.00 L355.00,569.00 L354.00,570.00 L353.00,570.00 L353.00,571.00 L352.00,572.00 L351.00,572.00 L351.00,573.00 L350.00,574.00 L349.00,574.00 L349.00,575.00 L348.00,576.00 L347.00,576.00 L347.00,577.00 L346.00,578.00 L345.00,578.00 L345.00,579.00 L344.00,580.00 L343.00,580.00 L335.00,588.00 L335.00,589.00 L334.00,590.00 L333.00,590.00 L333.00,591.00 L332.00,592.00 L331.00,592.00 L323.00,600.00 L323.00,601.00 L322.00,602.00 L321.00,602.00 L321.00,603.00 L320.00,604.00 L319.00,604.00 L307.00,616.00 L306.00,616.00 L303.00,619.00 L296.00,619.00 L289.00,612.00 L288.00,612.00 L287.00,611.00 L287.00,610.00 L286.00,610.00 L280.00,604.00 L280.00,603.00 L279.00,602.00 L278.00,602.00 L269.00,593.00 L269.00,592.00 L268.00,592.00 L264.00,588.00 L264.00,587.00 L263.00,587.00 L229.00,553.00 L229.00,552.00 L228.00,552.00 L221.00,545.00 L221.00,544.00 L219.00,542.00 L218.00,542.00 L211.00,535.00 L211.00,534.00 L207.00,530.00 L206.00,530.00 L205.00,529.00 L205.00,528.00 L204.00,527.00 L203.00,527.00 L202.00,526.00 L202.00,525.00 L90.00,413.00 L90.00,412.00 L86.00,408.00 L86.00,407.00 L82.00,403.00 L82.00,402.00 L80.00,400.00 L80.00,399.00 L78.00,397.00 L78.00,396.00 L76.00,394.00 L76.00,393.00 L74.00,391.00 L74.00,389.00 L72.00,387.00 L72.00,385.00 L71.00,384.00 L71.00,383.00 L70.00,382.00 L70.00,380.00 L69.00,379.00 L69.00,378.00 L68.00,377.00 L68.00,373.00 L66.00,371.00 L66.00,364.00 L65.00,363.00 L65.00,361.00 L64.00,360.00 L64.00,338.00 L65.00,337.00 L65.00,335.00 L66.00,334.00 L66.00,326.00 L67.00,325.00 L67.00,324.00 L68.00,323.00 L68.00,318.00 L70.00,316.00 L70.00,312.00 L71.00,311.00 L71.00,310.00 L72.00,309.00 L72.00,306.00 L74.00,304.00 L74.00,302.00 L76.00,300.00 L76.00,298.00 L78.00,296.00 L78.00,294.00 L80.00,292.00 L80.00,290.00 L82.00,288.00 L82.00,287.00 L84.00,285.00 L84.00,284.00 L86.00,282.00 L86.00,281.00 L88.00,279.00 L88.00,278.00 L94.00,272.00 L94.00,271.00 L96.00,269.00 L97.00,269.00 L98.00,268.00 L98.00,267.00 L108.00,257.00 L108.00,256.00 L109.00,255.00 L110.00,255.00 L110.00,254.00 L111.00,253.00 L112.00,253.00 L112.00,252.00 L113.00,251.00 L114.00,251.00 L114.00,250.00 L115.00,249.00 L116.00,249.00 L116.00,248.00 L117.00,247.00 L118.00,247.00 L118.00,246.00 L119.00,245.00 L120.00,245.00 L120.00,244.00 L121.00,243.00 L122.00,243.00 L122.00,242.00 L123.00,241.00 L124.00,241.00 L124.00,240.00 L125.00,239.00 L126.00,239.00 L126.00,238.00 L127.00,237.00 L128.00,237.00 L128.00,236.00 L129.00,235.00 L130.00,235.00 L132.00,233.00 L132.00,232.00 L133.00,231.00 L134.00,231.00 L134.00,230.00 L135.00,229.00 L136.00,229.00 L136.00,228.00 L137.00,227.00 L138.00,227.00 L138.00,226.00 L139.00,225.00 L140.00,225.00 L140.00,224.00 L141.00,223.00 L142.00,223.00 L142.00,222.00 L143.00,221.00 L144.00,221.00 L144.00,220.00 L145.00,219.00 L146.00,219.00 L150.00,215.00 L150.00,214.00 L151.00,213.00 L152.00,213.00 L152.00,212.00 L153.00,211.00 L154.00,211.00 L154.00,210.00 L155.00,209.00 L156.00,209.00 L156.00,208.00 L157.00,207.00 L158.00,207.00 L158.00,206.00 L159.00,205.00 L160.00,205.00 L160.00,204.00 L161.00,203.00 L162.00,203.00 L162.00,202.00 L163.00,201.00 L164.00,201.00 L164.00,200.00 L165.00,199.00 L166.00,199.00 L166.00,198.00 L167.00,197.00 L168.00,197.00 L168.00,196.00 L169.00,195.00 L170.00,195.00 L170.00,194.00 L171.00,193.00 L172.00,193.00 L172.00,192.00 L181.00,183.00 L182.00,183.00 L182.00,182.00 L242.00,122.00 L242.00,121.00 L254.00,109.00 L254.00,108.00 L255.00,107.00 L256.00,107.00 L256.00,106.00 L257.00,105.00 L258.00,105.00 L258.00,104.00 L272.00,90.00 L272.00,89.00 L276.00,85.00 L276.00,84.00 L277.00,83.00 L278.00,83.00 L278.00,82.00 L279.00,81.00 L280.00,81.00 L280.00,80.00 L281.00,79.00 L282.00,79.00 L282.00,78.00 L283.00,77.00 L284.00,77.00 L286.00,75.00 L288.00,75.00 L290.00,73.00 Z" fill="url(#grad)" fill-rule="evenodd"/>
</svg>
